<?xml version="1.0" encoding="UTF-8"?>
<svg fill="white" id="Calque_1" data-name="Calque 1" xmlns="http://www.w3.org/2000/svg" viewBox="0 0 653.36 497.85">
  <path d="M368.65,396.4c-.22,1.3-.27,1.28.62,2.07,4.08,3.63,10.77,7.29,15.39,11.4,15.77,14.04,21.56,25.5,32.18,42.82,5.38,8.78,24.91,33.59,17.25,43.63-3.78,4.96-18.11-3.6-23.69-5.2-17.49-5.01-35.92-3.16-53.58-7.42-25.99-6.27-45.38-21.82-57.56-45.44-3.96-7.69-6.29-16.38-10.26-23.74-28.95.03-57.79-3.58-85.74-10.9-14.35,12.89-32.17,18.66-51.14,20.76-10.43,1.15-21.34.47-31.73,2.27-5.14.89-21.6,8.19-24.29,2.74-4.09-8.27,18.37-27.51,22.02-35.01l13.5-13.47c-57.2-24.65-112.78-66.78-127.5-130.5-3.62-15.65-5.11-32.52-3.48-48.5,1.32-12.92,2.68-27.82,18.48-29.52,21.13-2.27,48.04.62,70.05.05,48.29-1.25,69.14-4.93,112.37,21.54,40.64,24.88,58.06,44.57,110.54,47.46,78.05,4.29,215.53-60.65,189.82-155.82-12.34-45.67-62.57-42.07-71.8-75.19-5.54-19.89,12.67-5.64,20.98-2.99,16.71,5.32,25.95,1.85,41.99.93,19.28-1.11,31.68,7.7,48.03,15.97,16.52-8.21,28.58-17.09,48.05-15.97,17.2.99,26.49,4.59,44.23-1.69,8.04-2.85,24.14-15.26,18.93,3.94-5.59,20.56-29.19,28.38-45.37,37.62-53.87,30.78-50.15,67.99-66.06,120.94-27.32,90.93-80.6,189.15-172.26,227.25Z"/>
</svg>